<svg xmlns="http://www.w3.org/2000/svg" xmlns:xlink="http://www.w3.org/1999/xlink" width="800" zoomAndPan="magnify" viewBox="0 0 600 307.91998" height="400" preserveAspectRatio="xMidYMid meet" version="1.0"><defs><clipPath id="4209bda2c4"><path d="M 0.078125 0 L 599.921875 0 L 599.921875 299.921875 L 0.078125 299.921875 Z M 0.078125 0 " clip-rule="nonzero"/></clipPath><clipPath id="e95a256d55"><path d="M 570 180 L 599.921875 180 L 599.921875 228 L 570 228 Z M 570 180 " clip-rule="nonzero"/></clipPath><clipPath id="f61bf48dc3"><path d="M 538 67 L 599.921875 67 L 599.921875 158 L 538 158 Z M 538 67 " clip-rule="nonzero"/></clipPath><clipPath id="8575e7f6b1"><path d="M 0.078125 75 L 135 75 L 135 233 L 0.078125 233 Z M 0.078125 75 " clip-rule="nonzero"/></clipPath></defs><g clip-path="url(#4209bda2c4)"><path fill="#ffffff" d="M 0.078125 0 L 599.921875 0 L 599.921875 299.921875 L 0.078125 299.921875 Z M 0.078125 0 " fill-opacity="1" fill-rule="nonzero"/><path fill="#ffffff" d="M 0.078125 0 L 599.921875 0 L 599.921875 299.921875 L 0.078125 299.921875 Z M 0.078125 0 " fill-opacity="1" fill-rule="nonzero"/></g><g clip-path="url(#e95a256d55)"><path fill="#53565a" d="M 570.96875 180.835938 L 599.207031 180.835938 L 599.207031 187.859375 L 579.285156 187.859375 L 579.285156 199.835938 L 596.125 199.835938 L 596.125 206.859375 L 579.285156 206.859375 L 579.285156 220.703125 L 599.921875 220.703125 L 599.921875 227.726562 L 570.96875 227.726562 Z M 570.96875 180.835938 " fill-opacity="1" fill-rule="nonzero"/></g><path fill="#53565a" d="M 504.933594 180.835938 L 513.464844 180.835938 L 528.078125 207.214844 L 532.882812 217.1875 L 533.167969 217.1875 C 532.8125 212.382812 532.09375 206.433594 532.09375 201.199219 L 532.09375 180.835938 L 540.046875 180.835938 L 540.046875 227.726562 L 531.523438 227.726562 L 516.898438 201.34375 L 512.097656 191.371094 L 511.8125 191.371094 C 512.171875 196.324219 512.890625 201.984375 512.890625 207.214844 L 512.890625 227.726562 L 504.933594 227.726562 Z M 504.933594 180.835938 " fill-opacity="1" fill-rule="nonzero"/><path fill="#53565a" d="M 465.695312 180.835938 L 474.011719 180.835938 L 474.011719 227.726562 L 465.695312 227.726562 Z M 465.695312 180.835938 " fill-opacity="1" fill-rule="nonzero"/><path fill="#53565a" d="M 424.601562 179.976562 C 430.261719 179.976562 434.984375 182.765625 437.925781 185.925781 L 433.269531 191.09375 C 430.902344 188.722656 428.253906 187.214844 424.671875 187.214844 C 416.933594 187.214844 411.484375 193.671875 411.484375 204.210938 C 411.484375 214.886719 416.5 221.34375 424.382812 221.34375 C 428.539062 221.34375 431.550781 219.621094 434.199219 216.683594 L 438.859375 221.777344 C 435.0625 226.148438 430.113281 228.582031 424.238281 228.582031 C 412.269531 228.582031 402.957031 219.976562 402.957031 204.425781 C 402.957031 189.082031 412.554688 179.976562 424.601562 179.976562 Z M 424.601562 179.976562 " fill-opacity="1" fill-rule="nonzero"/><path fill="#53565a" d="M 366.15625 180.835938 L 374.46875 180.835938 L 374.46875 227.726562 L 366.15625 227.726562 Z M 366.15625 180.835938 " fill-opacity="1" fill-rule="nonzero"/><path fill="#53565a" d="M 302.332031 180.835938 L 314.875 180.835938 C 329.207031 180.835938 337.660156 188.582031 337.660156 204.0625 C 337.660156 219.621094 329.207031 227.726562 315.300781 227.726562 L 302.328125 227.726562 L 302.328125 180.835938 Z M 314.296875 220.980469 C 323.757812 220.980469 329.136719 215.609375 329.136719 204.0625 C 329.136719 192.59375 323.757812 187.578125 314.296875 187.578125 L 310.644531 187.578125 L 310.644531 220.980469 Z M 314.296875 220.980469 " fill-opacity="1" fill-rule="nonzero"/><path fill="#53565a" d="M 244.746094 180.835938 L 272.980469 180.835938 L 272.980469 187.859375 L 253.058594 187.859375 L 253.058594 199.835938 L 269.898438 199.835938 L 269.898438 206.859375 L 253.058594 206.859375 L 253.058594 220.703125 L 273.699219 220.703125 L 273.699219 227.726562 L 244.746094 227.726562 Z M 244.746094 180.835938 " fill-opacity="1" fill-rule="nonzero"/><path fill="#53565a" d="M 172.328125 180.835938 L 181.503906 180.835938 L 189.964844 203.925781 L 193.042969 212.808594 L 193.332031 212.808594 L 196.339844 203.925781 L 204.648438 180.835938 L 213.824219 180.835938 L 213.824219 227.726562 L 206.015625 227.726562 L 206.015625 206.289062 C 206.015625 201.914062 206.65625 195.679688 207.089844 191.371094 L 206.804688 191.371094 L 203.003906 202.054688 L 194.90625 223.351562 L 191.035156 223.351562 L 182.9375 202.054688 L 179.210938 191.371094 L 178.921875 191.371094 C 179.355469 195.679688 179.996094 201.914062 179.996094 206.289062 L 179.996094 227.726562 L 172.328125 227.726562 Z M 172.328125 180.835938 " fill-opacity="1" fill-rule="nonzero"/><path fill="#8c1515" d="M 284.917969 156.8125 C 269.664062 156.8125 268.484375 145.222656 268.484375 141.667969 C 268.484375 137.488281 269.605469 130.101562 279.328125 126.523438 C 289.359375 122.835938 291.503906 122.410156 298.40625 120.238281 L 298.40625 118.449219 C 298.40625 115.105469 298.40625 114.289062 297.742188 112.214844 C 296.414062 108.234375 292.597656 105.734375 287.421875 105.734375 C 279.804688 105.734375 276.683594 111.550781 276.660156 111.609375 L 276.054688 112.746094 L 273.230469 111.066406 L 273.511719 110.195312 C 274.886719 105.816406 280.414062 98.367188 292.492188 98.367188 C 300.339844 98.367188 305.453125 100.597656 308.621094 105.410156 C 310.976562 109.226562 311.164062 114.503906 311.164062 120.019531 C 311.164062 124.867188 311.046875 130.265625 310.941406 134.621094 C 310.871094 137.609375 310.8125 140.203125 310.8125 141.78125 C 310.8125 145.761719 311.445312 148.84375 314.757812 148.84375 C 315.582031 148.84375 316.140625 148.667969 316.597656 148.28125 L 317.507812 147.511719 L 319.363281 149.625 L 318.742188 150.417969 C 315.699219 154.097656 312.796875 156.6875 307.628906 156.6875 C 303.152344 156.6875 300.054688 154.5625 299.003906 150.992188 C 296.515625 153.582031 291.996094 156.8125 284.917969 156.8125 Z M 298.40625 127.195312 C 290.910156 129.449219 288.367188 130.703125 286.042969 131.878906 C 282.816406 133.511719 281.136719 136.828125 281.136719 140.722656 C 281.136719 143.769531 282.222656 148.878906 289.535156 148.878906 C 291.949219 148.878906 295.398438 148.433594 298.40625 146.273438 Z M 298.40625 127.195312 " fill-opacity="1" fill-rule="nonzero"/><path fill="#8c1515" d="M 191.71875 156.664062 C 184.421875 156.664062 178.859375 155.867188 173.152344 154.003906 L 172.328125 153.734375 L 172.328125 149.644531 C 172.328125 144.195312 172.214844 142.054688 172.097656 140.320312 L 171.933594 137.488281 L 175.253906 137.496094 L 175.324219 138.679688 C 175.460938 141.21875 176.316406 143.71875 177.867188 145.46875 C 180.257812 148.179688 185.773438 149.8125 190.890625 149.8125 C 201.621094 149.8125 206.609375 145.75 206.609375 137.027344 C 206.609375 129.554688 201.996094 126.449219 195.625 122.140625 L 194.601562 121.441406 L 187.867188 116.957031 C 178.507812 110.75 173.746094 105.78125 173.746094 95.859375 C 173.746094 91 175.578125 75.15625 199.171875 75.15625 C 208.851562 75.15625 216.3125 76.429688 216.628906 76.476562 L 217.644531 76.65625 L 217.609375 77.65625 C 217.609375 77.683594 217.527344 80.761719 217.527344 84.101562 C 217.527344 86.726562 217.480469 89.015625 217.574219 91.378906 L 217.667969 93.144531 L 214.808594 93.144531 L 214.738281 92.039062 C 214.527344 89.039062 213.652344 86.882812 212.007812 85.234375 C 209.738281 82.957031 204.71875 81.894531 199.402344 81.894531 C 186.90625 81.894531 185.445312 88.328125 185.445312 93.144531 C 185.445312 99.78125 188.847656 102.027344 196.277344 106.9375 L 204.800781 112.589844 C 212.066406 117.433594 218.910156 122.011719 218.910156 134.0625 C 218.910156 154.460938 199.894531 156.664062 191.71875 156.664062 Z M 191.71875 156.664062 " fill-opacity="1" fill-rule="nonzero"/><path fill="#8c1515" d="M 247.609375 157.023438 C 238.902344 157.023438 234.082031 153.910156 231.941406 146.964844 C 231.054688 144.195312 231.054688 138.75 231.054688 135.484375 C 231.054688 126.488281 231.136719 119.269531 231.230469 110.90625 L 231.277344 106.984375 L 223.847656 106.984375 L 223.847656 104.773438 L 224.570312 104.472656 C 228.03125 103.042969 229.351562 102.070312 230.878906 100.890625 C 236.289062 96.691406 240.046875 89.597656 240.105469 89.496094 L 241.371094 87.347656 L 243.820312 87.347656 L 243.820312 100.003906 L 262.988281 100.003906 L 262.988281 106.984375 L 243.820312 106.984375 L 243.820312 136.546875 C 243.820312 145.375 245.46875 150.417969 253.828125 150.417969 C 257.710938 150.417969 260.695312 148.914062 260.71875 148.890625 L 261.875 148.292969 L 262.863281 150.582031 L 262.378906 151.132812 C 262.179688 151.355469 257.839844 157.023438 247.609375 157.023438 Z M 247.609375 157.023438 " fill-opacity="1" fill-rule="nonzero"/><path fill="#8c1515" d="M 324.164062 156.316406 L 324.164062 153.640625 L 325.25 153.558594 C 326.195312 153.480469 328.574219 153.105469 330.238281 151.226562 C 331.976562 149.285156 332.082031 144.480469 332.082031 134.890625 L 332.082031 118.800781 C 332.082031 111.875 331.976562 108.910156 330.972656 107.40625 C 329.824219 105.746094 327.28125 105.570312 325.925781 105.472656 C 325.75 105.464844 325.597656 105.445312 325.460938 105.4375 L 324.386719 105.328125 L 324.386719 102.105469 L 325.65625 102.203125 C 325.878906 102.234375 326.160156 102.234375 326.519531 102.234375 C 328.257812 102.234375 332.363281 102 336.691406 101.160156 C 340 100.632812 341.925781 99.488281 342.625 99.164062 L 343.269531 98.863281 L 344.375 99.523438 L 344.375 103.996094 C 347.21875 101.886719 352.925781 98.585938 360.6875 98.585938 C 370.828125 98.585938 377.457031 103.328125 379.347656 111.933594 C 379.882812 114.070312 380.082031 119.25 380.082031 122.011719 L 380.082031 138.441406 C 380.082031 147.734375 380.441406 150.34375 382.179688 151.972656 C 383.058594 152.777344 384.914062 153.441406 386.535156 153.546875 L 387.644531 153.628906 L 387.644531 156.257812 L 384.855469 156.109375 C 380.816406 155.90625 377.339844 155.71875 373.6875 155.71875 C 369.53125 155.71875 365.9375 155.71875 360.917969 156.1875 L 359.613281 156.316406 L 359.613281 153.710938 L 360.628906 153.570312 C 362.808594 153.230469 364.324219 152.613281 365.296875 151.648438 C 367.117188 149.824219 367.210938 145.496094 367.347656 141.753906 C 367.371094 141.136719 367.394531 140.484375 367.429688 139.804688 C 367.535156 137.703125 367.535156 133.277344 367.535156 130.042969 C 367.535156 125.828125 367.535156 121.472656 367.082031 117.171875 C 366.238281 109.890625 362.449219 106.507812 355.128906 106.507812 C 350.113281 106.507812 346.972656 107.65625 344.597656 108.875 L 344.597656 138.4375 C 344.597656 147.734375 344.976562 150.34375 346.714844 151.972656 C 347.601562 152.777344 349.433594 153.441406 351.070312 153.546875 L 352.171875 153.628906 L 352.171875 156.257812 L 349.179688 156.105469 C 345.28125 155.898438 341.902344 155.71875 338.355469 155.71875 C 334.289062 155.71875 330.472656 155.71875 325.433594 156.1875 Z M 324.164062 156.316406 " fill-opacity="1" fill-rule="nonzero"/><path fill="#8c1515" d="M 394.34375 156.316406 L 394.34375 153.582031 L 395.441406 153.5 C 396.394531 153.433594 398.777344 153.058594 400.433594 151.183594 C 402.183594 149.238281 402.265625 144.480469 402.265625 134.890625 L 402.265625 106.984375 L 394.9375 106.984375 L 394.9375 103.828125 L 395.671875 103.515625 C 398.859375 102.203125 400.820312 101.160156 402.265625 100.03125 C 402.277344 95.039062 402.429688 88.605469 403.105469 85.105469 C 405.335938 73.488281 412.921875 67.589844 425.6875 67.589844 C 431.160156 67.589844 436.390625 69.417969 439.421875 71.882812 L 439.855469 72.230469 L 440.03125 73.429688 L 434.441406 81.191406 L 433.097656 81.203125 L 432.792969 80.503906 C 430.660156 75.726562 427.554688 73.859375 423.316406 73.859375 C 421.554688 73.859375 419.140625 74.386719 417.644531 75.886719 C 415.207031 78.316406 414.796875 81.941406 414.796875 89.121094 L 414.796875 100.003906 L 427.332031 100.003906 L 427.332031 106.984375 L 414.796875 106.984375 L 414.796875 138.207031 C 414.796875 145.636719 415.042969 149.257812 416.011719 150.710938 C 417.585938 153.082031 422.371094 153.261719 423.785156 153.261719 L 424.972656 153.261719 L 424.972656 156.257812 L 423.726562 156.1875 C 417.527344 155.867188 412.917969 155.71875 409.59375 155.71875 C 405.414062 155.71875 400.664062 155.71875 395.636719 156.1875 L 394.339844 156.316406 Z M 394.34375 156.316406 " fill-opacity="1" fill-rule="nonzero"/><path fill="#8c1515" d="M 459.054688 157.261719 C 441.886719 157.261719 431.628906 146.554688 431.628906 128.632812 C 431.628906 114.714844 439.121094 98.460938 460.242188 98.460938 C 477.421875 98.460938 487.679688 109.167969 487.679688 127.085938 C 487.679688 141.007812 480.1875 157.261719 459.054688 157.261719 Z M 459.765625 104.964844 C 456.449219 104.964844 453.765625 105.824219 451.804688 107.523438 C 447.277344 111.3125 444.992188 118.21875 444.992188 128.03125 C 444.992188 131.824219 445.691406 150.757812 459.542969 150.757812 C 462.847656 150.757812 465.542969 149.886719 467.527344 148.199219 C 472.03125 144.410156 474.316406 137.503906 474.316406 127.6875 C 474.316406 123.890625 473.617188 104.964844 459.765625 104.964844 Z M 459.765625 104.964844 " fill-opacity="1" fill-rule="nonzero"/><path fill="#8c1515" d="M 493.105469 156.316406 L 493.105469 153.464844 L 494.203125 153.375 C 495.160156 153.316406 497.5625 152.941406 499.210938 151.050781 C 500.960938 149.113281 501.03125 144.484375 501.03125 134.890625 L 501.03125 118.800781 C 501.03125 111.878906 500.9375 108.910156 499.945312 107.40625 C 498.789062 105.746094 496.257812 105.574219 494.890625 105.472656 C 494.726562 105.46875 494.566406 105.445312 494.449219 105.4375 L 493.351562 105.328125 L 493.351562 101.917969 L 494.566406 101.941406 C 494.777344 101.957031 495.136719 101.964844 495.488281 101.964844 C 497.238281 101.964844 501.335938 101.75 505.652344 100.902344 C 508.382812 100.445312 510.738281 99.746094 511.683594 99.296875 L 512.339844 99.003906 L 513.332031 99.523438 L 513.332031 104.417969 C 516.027344 101.871094 520.296875 99.171875 526.34375 99.171875 C 530.277344 99.171875 533.449219 100.222656 535.761719 102.308594 L 536.144531 102.664062 L 536.144531 104.4375 L 531.410156 113.125 L 529.132812 113.125 L 528.78125 112.578125 C 527.464844 110.511719 524.828125 108.046875 519.714844 108.046875 C 517.382812 108.046875 515.363281 108.632812 513.578125 109.832031 L 513.578125 138.207031 C 513.578125 145.636719 513.820312 149.148438 514.789062 150.59375 C 516.378906 152.953125 521.136719 153.140625 522.550781 153.140625 L 523.730469 153.140625 L 523.730469 156.257812 L 522.492188 156.1875 C 516.308594 155.867188 511.683594 155.71875 508.359375 155.71875 C 504.179688 155.71875 499.445312 155.71875 494.414062 156.1875 Z M 493.105469 156.316406 " fill-opacity="1" fill-rule="nonzero"/><g clip-path="url(#f61bf48dc3)"><path fill="#8c1515" d="M 581.566406 157.097656 L 580.058594 156.59375 L 580.058594 151.855469 C 577.269531 153.921875 571.738281 157.132812 564.339844 157.132812 C 548.890625 157.132812 538.898438 146.414062 538.898438 129.8125 C 538.898438 124.304688 539.984375 119.070312 541.980469 114.65625 C 546.683594 104.441406 556.484375 98.585938 568.820312 98.585938 C 573.347656 98.585938 577.398438 99.144531 579.8125 99.664062 L 579.8125 87.695312 C 579.8125 80.679688 579.722656 76.941406 578.71875 75.429688 C 577.574219 73.789062 575.109375 73.601562 573.78125 73.503906 C 573.605469 73.496094 573.453125 73.484375 573.328125 73.46875 L 572.265625 73.363281 L 572.507812 70.835938 L 573.699219 70.835938 C 573.96875 70.835938 580.46875 70.296875 585.753906 69.257812 C 587.972656 68.898438 590.164062 68.402344 591.308594 67.980469 L 591.871094 67.769531 L 592.839844 68.347656 L 592.792969 68.898438 C 592.417969 73.539062 592.359375 83.457031 592.359375 90.890625 L 592.359375 136.789062 C 592.359375 143.648438 592.453125 147.890625 593.445312 149.257812 C 594.613281 150.933594 597.0625 151.214844 598.394531 151.320312 C 598.570312 151.324219 598.730469 151.328125 598.859375 151.351562 L 599.921875 151.394531 L 599.921875 154.417969 L 598.742188 154.417969 C 597.484375 154.417969 592.570312 154.761719 587.820312 155.578125 C 585.089844 156.023438 583.070312 156.421875 582.078125 156.875 Z M 568.578125 105.328125 C 557.617188 105.328125 552.261719 112.835938 552.261719 128.277344 C 552.261719 134.535156 554.035156 149.089844 570.375 149.089844 L 570.898438 149.089844 C 572.882812 149.089844 576.582031 148.796875 579.816406 146.792969 L 579.816406 109.09375 C 578.894531 108.179688 575.484375 105.328125 568.578125 105.328125 Z M 568.578125 105.328125 " fill-opacity="1" fill-rule="nonzero"/></g><g clip-path="url(#8575e7f6b1)"><path fill="#8c1515" d="M 128.011719 75.15625 L 6.617188 75.15625 C 3.578125 82.246094 -3.214844 109.941406 1.96875 141.800781 C 2.109375 142.675781 2.28125 143.558594 2.441406 144.4375 C 7.988281 174.84375 24.703125 208.554688 65.996094 231.636719 C 66.445312 231.886719 66.855469 232.15625 67.3125 232.40625 C 67.769531 232.15625 68.179688 231.886719 68.628906 231.636719 C 154.683594 183.539062 134.003906 89.160156 128.011719 75.15625 Z M 128.011719 75.15625 " fill-opacity="1" fill-rule="nonzero"/></g><path fill="#ffffff" d="M 65.996094 75.15625 L 65.996094 141.800781 L 1.96875 141.800781 C 2.109375 142.675781 2.28125 143.558594 2.441406 144.4375 L 65.996094 144.4375 L 65.996094 231.636719 C 66.445312 231.886719 66.855469 232.15625 67.3125 232.40625 C 67.769531 232.15625 68.179688 231.886719 68.628906 231.636719 L 68.628906 75.15625 Z M 65.996094 75.15625 " fill-opacity="1" fill-rule="nonzero"/><path fill="#ffffff" d="M 34.140625 87.515625 L 34.171875 89.394531 C 35.421875 88.378906 37.238281 87.574219 38.679688 87.277344 C 37.882812 90.875 36.117188 91.789062 34.199219 92.121094 L 34.128906 95.148438 C 35.691406 93.886719 38.058594 92.183594 39.863281 91.816406 C 38.84375 96.382812 36.632812 98.050781 34.191406 98.402344 L 34.199219 101.378906 C 36.144531 100.125 39.21875 97.914062 41.472656 97.546875 C 40.179688 102.179688 37.3125 104.011719 34.207031 104.300781 L 34.210938 107.042969 C 36.164062 105.78125 39.21875 103.808594 41.472656 103.449219 C 40.230469 107.929688 37.207031 110.644531 34.21875 111.0625 L 34.222656 113.382812 C 36.171875 112.121094 39.21875 110.152344 41.472656 109.789062 C 40.292969 114.480469 37.308594 117.007812 34.191406 117.277344 L 34.191406 119.175781 C 36.539062 117.789062 40.375 115.378906 43.085938 114.972656 C 41.542969 120.011719 37.898438 122.75 34.199219 123.097656 L 34.199219 125.269531 C 35.445312 124.257812 38.09375 123.167969 39.539062 122.878906 C 38.773438 126.320312 36 127.496094 34.171875 127.949219 L 34.164062 132.011719 C 34.597656 132 35.023438 131.921875 35.460938 131.871094 C 35.335938 130.460938 36.164062 129.011719 37.992188 127.84375 C 38.074219 128.921875 37.457031 130.503906 37.105469 131.570312 C 38.09375 131.347656 39.066406 131.074219 40.046875 130.652344 C 39.523438 128.59375 40.207031 125.773438 42.566406 123.386719 C 43.003906 124.972656 42.597656 127.570312 42.382812 129.292969 C 43.417969 128.660156 44.46875 127.96875 45.476562 127.089844 C 44.34375 125.136719 44.550781 122.105469 46.757812 119.058594 C 47.402344 120.550781 47.4375 123.4375 47.460938 125.171875 C 48.351562 124.226562 49.320312 123.144531 50.175781 121.996094 C 48.621094 120.101562 48.566406 118.265625 50.417969 114.578125 C 51.066406 116.074219 51.65625 118.316406 51.679688 120.058594 C 52.484375 119.023438 53.050781 118.15625 53.730469 116.910156 C 53.328125 115.957031 53.519531 115.238281 54.007812 114.617188 C 54.691406 113.753906 55.722656 113.015625 56.636719 113.582031 C 57.921875 114.167969 57.277344 115.574219 56.828125 116.605469 C 56.503906 117.332031 55.964844 117.828125 55.003906 117.804688 C 54.359375 118.976562 53.421875 120.257812 52.617188 121.28125 C 54.484375 121.871094 55.796875 122.308594 57.046875 123.585938 C 54.308594 124.730469 52.660156 124.457031 51.292969 123.320312 C 50.40625 124.5 49.109375 125.777344 48.183594 126.75 C 49.988281 127.3125 51.171875 127.816406 52.648438 129.316406 C 49.648438 130.570312 47.433594 130.175781 46.105469 128.761719 C 45.0625 129.65625 44.066406 130.578125 42.992188 131.210938 C 44.761719 132.117188 46.046875 133.078125 47.121094 134.550781 C 43.703125 135.332031 41.457031 134.363281 40.457031 132.449219 C 39.449219 132.859375 38.503906 133.199219 37.476562 133.394531 C 38.453125 134.234375 39.117188 134.878906 39.605469 135.96875 C 37.265625 135.910156 35.9375 135.363281 35.589844 133.925781 C 35.117188 133.96875 34.648438 134.285156 34.171875 134.28125 L 34.171875 138.855469 L 31.296875 137.574219 L 31.296875 134.21875 C 31.003906 134.195312 30.324219 133.957031 30.042969 133.910156 C 29.625 135.265625 28.59375 135.792969 26.351562 135.84375 C 26.847656 134.730469 27.113281 133.945312 28.246094 133.355469 C 27.207031 133.09375 26.242188 132.589844 25.21875 132.121094 C 24.328125 134.242188 22.316406 135.136719 18.703125 134.308594 C 19.769531 132.828125 21.097656 131.507812 22.902344 130.890625 C 21.980469 130.320312 21.128906 129.738281 20.214844 128.851562 C 18.902344 130.332031 16.664062 130.839844 13.601562 129.566406 C 14.855469 128.28125 16.105469 127.269531 18.011719 126.902344 C 17.050781 125.949219 16.164062 124.792969 15.253906 123.636719 C 13.878906 124.839844 11.820312 125.234375 9.011719 124.054688 C 10.269531 122.773438 11.703125 121.417969 13.511719 121.4375 C 12.957031 120.652344 12.472656 119.753906 11.894531 118.84375 C 11.296875 118.828125 10.785156 118.839844 10.171875 118.066406 C 9.503906 117.210938 8.878906 115.382812 9.988281 114.804688 C 10.667969 114.214844 12.257812 115.078125 12.785156 116.039062 C 13.265625 116.910156 13.089844 117.4375 12.917969 118.050781 C 13.480469 118.929688 14.109375 119.804688 14.675781 120.585938 C 14.285156 118.058594 14.996094 115.964844 15.648438 114.476562 C 17.914062 117.621094 17.496094 120.339844 16.234375 122.269531 C 17.175781 123.425781 17.964844 124.292969 18.898438 125.238281 C 18.625 123.46875 18.84375 120.792969 19.492188 119.300781 C 21.601562 122.207031 21.886719 125.1875 20.925781 127.144531 C 21.808594 127.894531 22.632812 128.605469 23.511719 129.164062 C 23.03125 127.496094 22.816406 124.730469 23.253906 123.136719 C 25.636719 125.558594 26.375 128.300781 25.820312 130.371094 C 26.832031 130.839844 27.8125 131.238281 28.832031 131.472656 C 28.351562 130.484375 27.882812 128.796875 27.964844 127.726562 C 29.75 128.863281 30.203125 130.183594 30.128906 131.578125 C 30.414062 131.605469 31.171875 131.949219 31.441406 131.960938 L 31.378906 127.949219 C 29.621094 127.496094 26.96875 126.476562 26.097656 123.074219 C 27.746094 123.464844 29.859375 123.867188 31.378906 125.226562 L 31.378906 123.105469 C 27.824219 122.804688 24.230469 120.28125 22.460938 115.242188 C 25.554688 115.773438 28.523438 117.25 31.378906 119.109375 L 31.382812 117.25 C 28.277344 117.015625 25.34375 114.136719 24.023438 110.03125 C 26.605469 110.515625 29 111.683594 31.378906 113.382812 L 31.378906 111.035156 C 28.460938 110.714844 25.480469 108.238281 24.023438 103.691406 C 26.605469 104.179688 29 105.28125 31.378906 106.980469 L 31.378906 104.359375 C 28.371094 104.144531 25.523438 102.464844 24.023438 97.792969 C 26.605469 98.277344 29 99.625 31.378906 101.320312 L 31.378906 98.402344 C 29.007812 98.132812 26.777344 96.671875 25.59375 92.0625 C 27.65625 92.550781 29.480469 93.429688 31.378906 95.132812 L 31.382812 92.097656 C 29.558594 91.777344 27.871094 91.046875 26.953125 87.480469 C 28.195312 87.769531 29.703125 87.835938 31.390625 89.339844 L 31.367188 87.515625 C 29.980469 85.464844 30.285156 84.5625 30.449219 82.929688 C 30.609375 81.445312 31.152344 80.351562 32.75 80.277344 C 34.34375 80.351562 34.886719 81.445312 35.054688 82.929688 C 35.21875 84.5625 35.523438 85.464844 34.140625 87.515625 " fill-opacity="1" fill-rule="nonzero"/><path fill="#ffffff" d="M 101.761719 125.023438 C 102.691406 113.515625 104.394531 110.378906 107.210938 108.035156 L 107.632812 107.683594 L 106.472656 100.027344 L 105.496094 100.1875 C 104.214844 100.398438 103.023438 101.375 102.085938 102.4375 L 102.078125 96.769531 L 93.53125 91.714844 L 93.539062 95.976562 C 92.882812 95.34375 92.308594 94.863281 92.058594 94.679688 C 91.191406 94.039062 90.421875 93.742188 89.636719 93.742188 C 89.175781 93.742188 88.769531 93.847656 88.410156 93.9375 C 87.804688 94.101562 87.390625 94.226562 86.496094 93.847656 C 82.617188 93.0625 79.617188 93.929688 77.957031 96.273438 C 76.398438 98.472656 76.148438 101.875 77.304688 105.148438 C 78.046875 107.253906 79.402344 109.660156 81.332031 112.300781 C 82.113281 113.371094 88.917969 120.546875 90.421875 122.085938 C 91.417969 123.101562 92.484375 124.109375 93.574219 125.109375 L 93.574219 127.71875 L 91.859375 126.550781 L 89.589844 131.804688 L 90.300781 132.25 C 91.878906 133.230469 93.527344 135.964844 94.667969 150.328125 C 90.546875 152.039062 85.285156 156.90625 85.140625 161.910156 C 85.070312 164.304688 86.203125 167.636719 92.105469 169.949219 C 93.238281 170.390625 94.46875 170.871094 95.691406 171.367188 C 95.765625 174.097656 95.832031 177.03125 95.890625 180.164062 C 94.710938 180.699219 92.761719 181.910156 92.382812 183.636719 C 92.050781 185.1875 93 186.695312 95.21875 188.113281 C 95.472656 188.28125 95.742188 188.382812 96.015625 188.484375 C 96.023438 189.355469 96.03125 190.277344 96.042969 191.179688 C 95.113281 191.632812 94.621094 191.972656 93.90625 192.789062 C 93.507812 193.242188 93.136719 193.730469 93.347656 194.191406 C 93.402344 194.308594 93.578125 194.59375 94.03125 194.59375 C 94.339844 194.59375 94.78125 194.464844 95.613281 194.128906 C 95.832031 194.039062 96.015625 193.972656 96.171875 193.921875 C 96.597656 194.949219 97.527344 195.609375 98.59375 195.609375 C 99.738281 195.609375 100.675781 194.847656 100.929688 193.699219 L 100.953125 193.59375 L 100.953125 193.484375 C 100.949219 193.089844 100.945312 192.722656 100.945312 192.335938 C 101.757812 191.785156 102.25 190.929688 102.289062 189.917969 C 102.339844 188.761719 101.796875 187.640625 100.90625 186.792969 C 100.894531 185.496094 100.890625 184.269531 100.882812 183.015625 C 104.667969 182.136719 108.554688 179.667969 108.921875 176.394531 C 109.148438 174.355469 108.058594 171.375 101.570312 168.753906 C 101.3125 168.648438 101.078125 168.546875 100.828125 168.445312 C 100.820312 162.964844 100.832031 158.019531 100.867188 153.53125 C 107.589844 150.117188 112.171875 146.925781 112.761719 142.652344 C 113.371094 138.199219 109.722656 132.925781 101.761719 125.023438 Z M 91.648438 115.519531 C 81.144531 105.988281 80.699219 101.640625 81.371094 99.902344 C 82.152344 97.867188 84.847656 97.800781 85.394531 97.933594 C 85.726562 98.007812 85.742188 98.070312 85.847656 98.496094 C 86.011719 99.167969 86.257812 100.1875 88.277344 100.855469 C 90.523438 101.597656 92.246094 102.011719 93.546875 102.136719 L 93.5625 117.265625 C 92.9375 116.691406 92.308594 116.117188 91.648438 115.519531 Z M 104.203125 176.65625 C 104.183594 177.085938 103.679688 177.910156 100.859375 178.847656 C 100.851562 177.085938 100.84375 175.359375 100.835938 173.691406 C 102.851562 174.75 104.25 175.78125 104.203125 176.65625 Z M 100.125 97.886719 L 100.136719 102.164062 L 97.753906 101.527344 L 96.515625 100.894531 C 96.660156 100.117188 96.191406 99.132812 95.492188 98.171875 L 95.488281 95.144531 Z M 90.460938 162.058594 C 90.300781 160.726562 91.707031 159.015625 95.082031 156.445312 C 95.246094 159.316406 95.394531 162.542969 95.519531 166.152344 C 92.570312 164.738281 90.628906 163.417969 90.460938 162.058594 Z M 97.667969 172.199219 C 98.078125 172.378906 98.488281 172.558594 98.882812 172.742188 C 98.894531 176.753906 98.914062 181.011719 98.941406 185.5625 C 98.605469 185.375 98.222656 185.117188 97.917969 184.804688 C 97.851562 180.21875 97.769531 176.027344 97.667969 172.199219 Z M 98.015625 193.285156 C 98 191.828125 97.988281 190.417969 97.972656 189.027344 C 98.402344 189.140625 98.734375 189.285156 98.96875 189.542969 C 98.980469 190.8125 98.984375 192.058594 98.996094 193.363281 C 98.867188 193.746094 98.320312 193.851562 98.015625 193.285156 Z M 98.871094 167.640625 C 98.40625 167.445312 97.949219 167.25 97.511719 167.058594 C 96.488281 136.996094 94.226562 132.703125 92.039062 131.0625 L 92.714844 129.496094 L 95.53125 131.402344 L 95.527344 126.871094 C 95.863281 127.175781 96.207031 127.488281 96.539062 127.789062 C 97.539062 128.679688 98.519531 129.558594 99.46875 130.433594 C 99.027344 138.972656 98.855469 150.859375 98.871094 167.640625 Z M 99.96875 123.269531 C 98.597656 121.945312 97.113281 120.542969 95.515625 119.066406 L 95.496094 102.007812 C 95.675781 101.941406 95.828125 101.859375 95.960938 101.761719 L 97.183594 102.355469 L 98.839844 104.996094 L 99.351562 104.835938 L 99.25 103.15625 L 100.136719 102.976562 L 100.140625 105.558594 L 101.992188 105.984375 C 102.457031 105.042969 103.667969 103.320312 104.875 102.519531 L 105.539062 106.898438 C 102.703125 109.410156 100.960938 112.730469 99.96875 123.269531 Z M 106.96875 141.886719 C 106.617188 144.046875 104.621094 145.960938 100.925781 147.726562 C 101.003906 141.609375 101.136719 136.480469 101.328125 132.191406 C 104.890625 135.660156 107.453125 138.9375 106.96875 141.886719 Z M 106.96875 141.886719 " fill-opacity="1" fill-rule="nonzero"/><path fill="#8c1515" d="M 89.003906 98.28125 C 88.835938 98.191406 88.652344 98.148438 88.46875 98.148438 C 88.15625 98.148438 87.894531 98.28125 87.773438 98.511719 C 87.566406 98.898438 87.773438 99.394531 88.261719 99.664062 C 88.4375 99.761719 88.628906 99.8125 88.8125 99.8125 C 89.117188 99.8125 89.367188 99.675781 89.503906 99.425781 C 89.691406 99.039062 89.472656 98.535156 89.003906 98.28125 Z M 89.003906 98.28125 " fill-opacity="1" fill-rule="nonzero"/><path fill="#8c1515" d="M 90.714844 95.292969 C 90.511719 95.105469 90.246094 94.996094 89.980469 94.996094 C 89.769531 94.996094 89.589844 95.066406 89.480469 95.1875 C 89.351562 95.320312 89.28125 95.5 89.285156 95.695312 C 89.289062 95.957031 89.425781 96.234375 89.648438 96.4375 C 89.855469 96.636719 90.121094 96.746094 90.371094 96.746094 C 90.578125 96.746094 90.761719 96.671875 90.890625 96.53125 C 91.019531 96.394531 91.082031 96.210938 91.074219 96.015625 C 91.0625 95.757812 90.929688 95.496094 90.714844 95.296875 Z M 90.714844 95.292969 " fill-opacity="1" fill-rule="nonzero"/><path fill="#ffffff" d="M 50.550781 169.933594 L 50.542969 155.632812 L 25.179688 155.632812 L 25.179688 181.003906 L 33.011719 181.003906 L 33.011719 195.3125 L 58.371094 195.3125 L 58.371094 169.933594 Z M 43.042969 158.863281 L 47.195312 158.863281 L 47.195312 169.476562 L 43.042969 169.476562 Z M 47.300781 181.003906 L 47.300781 184.230469 L 44.074219 184.230469 L 44.074219 181.003906 Z M 28.976562 158.863281 L 39.585938 158.863281 L 39.585938 163.015625 L 28.976562 163.015625 Z M 33.011719 177.777344 L 28.867188 177.777344 L 28.867188 167.167969 L 33.011719 167.167969 Z M 36.238281 166.703125 L 39.460938 166.703125 L 39.460938 169.933594 L 36.238281 169.933594 Z M 36.585938 173.621094 L 47.195312 173.621094 L 47.195312 177.773438 L 36.585938 177.773438 Z M 40.851562 191.625 L 36.699219 191.625 L 36.699219 181.003906 L 40.851562 181.003906 Z M 54.566406 191.503906 L 43.964844 191.503906 L 43.964844 187.347656 L 54.566406 187.347656 Z M 54.683594 184.121094 L 50.535156 184.121094 L 50.535156 173.511719 L 54.683594 173.511719 Z M 54.683594 184.121094 " fill-opacity="1" fill-rule="nonzero"/></svg>