<svg width="120" height="32" viewBox="0 0 120 32" fill="none" xmlns="http://www.w3.org/2000/svg">
  <!-- Purple gradient circle with AI spark -->
  <circle cx="16" cy="16" r="12" fill="url(#purpleGradient)"/>
  <path d="M16 8L18 14L24 14L19 18L21 24L16 20L11 24L13 18L8 14L14 14L16 8Z" fill="white" opacity="0.9"/>
  
  <!-- AidMi text using path-based letters -->
  <g transform="translate(36, 11)">
    <!-- A -->
    <path d="M0 16L4 4L8 16M2 12H6" stroke="#00408C" stroke-width="2.2" stroke-linecap="round" stroke-linejoin="round"/>
    <!-- i -->
    <circle cx="12" cy="5" r="1.2" fill="#00408C"/>
    <line x1="12" y1="8" x2="12" y2="16" stroke="#00408C" stroke-width="2.2" stroke-linecap="round"/>
    <!-- d -->
    <path d="M20 4V16M20 8C20 8 17 8 17 12C17 16 20 16 20 16C20 16 23 16 23 12C23 8 20 8 20 8Z" stroke="#00408C" stroke-width="2.2" stroke-linecap="round" stroke-linejoin="round"/>
    <!-- M -->
    <path d="M28 16V8L32 14L36 8V16" stroke="#8B5CF6" stroke-width="2.2" stroke-linecap="round" stroke-linejoin="round"/>
    <!-- i -->
    <circle cx="40" cy="5" r="1.2" fill="#8B5CF6"/>
    <line x1="40" y1="8" x2="40" y2="16" stroke="#8B5CF6" stroke-width="2.2" stroke-linecap="round"/>
  </g>
  
  <defs>
    <linearGradient id="purpleGradient" x1="16" y1="4" x2="16" y2="28" gradientUnits="userSpaceOnUse">
      <stop offset="0%" stop-color="#A78BFA"/>
      <stop offset="100%" stop-color="#8B5CF6"/>
    </linearGradient>
  </defs>
</svg>
